<svg  width='63' height='63' fill="#000000" xmlns="http://www.w3.org/2000/svg" xmlns:xlink="http://www.w3.org/1999/xlink" version="1.1" x="0px" y="0px" viewBox="0 0 100 100" enable-background="new 0 0 100 100" xml:space="preserve"><g><rect x="35" y="5" width="10" height="10"/><rect x="55" y="25" width="10" height="10"/><rect x="55" y="5" width="10" height="10"/><path d="M65,55V45H55v10H45V45h10V35H45H35V25V15H25V5H15v10H5v10v10v10v10v10v10v10v10h10h10h10h10h10h10h10h10h10V85V75V65H85v10   v10H75V75V65h10V55h10V45H85H75v10H65z M15,25h10v10H15V25z M65,75H55V65h10V75z"/><rect x="65" y="35" width="10" height="10"/><polygon points="75,15 65,15 65,25 75,25 85,25 85,15  "/><rect x="85" y="25" width="10" height="10"/><rect x="85" y="5" width="10" height="10"/></g></svg>