<svg width='63' height='63' fill="#000000" xmlns="http://www.w3.org/2000/svg" xmlns:xlink="http://www.w3.org/1999/xlink" version="1.0" x="0px" y="0px" viewBox="0 0 100 100" enable-background="new 0 0 100 100" xml:space="preserve"><path fill="none" stroke="#000000" stroke-width="1.25" stroke-linecap="round" stroke-linejoin="round" stroke-miterlimit="10" d="  M80.367,40.127c0.396-1.478,0.631-3.021,0.631-4.626c0-9.942-8.059-18.001-18.002-18.001c-6.948,0-12.96,3.943-15.964,9.708  c-1.348-0.453-2.787-0.708-4.286-0.708c-7.456,0-13.499,6.045-13.499,13.5c-6.211,0-11.249,5.038-11.249,11.252  c0,5.615,4.118,10.256,9.499,11.1V50.001c0-2.763,2.239-5.001,4.999-5.001h45c2.764,0,5.003,2.238,5.003,5.001v11.844  c4.368-1.547,7.5-5.699,7.5-10.597C90,45.588,85.813,40.916,80.367,40.127z"/><path fill="none" stroke="#000000" stroke-width="1.25" stroke-linecap="round" stroke-linejoin="round" stroke-miterlimit="10" d="  M77.497,45c2.764,0,5.003,2.238,5.003,5.001V82.5H27.498V50.001c0-2.763,2.239-5.001,4.999-5.001H77.497z"/><path fill="none" stroke="#000000" stroke-width="1.25" stroke-linecap="round" stroke-linejoin="round" stroke-miterlimit="10" d="  M27.498,62.352c-5.381-0.844-9.499-5.484-9.499-11.1C17.999,45.038,23.037,40,29.248,40c0-6.346,4.383-11.653,10.284-13.099V14.923  c0-2.718-2.205-4.923-4.924-4.923H14.919C12.201,10,10,12.205,10,14.923v42.654c0,2.72,2.201,4.923,4.919,4.923h12.579V62.352z"/><path fill="none" stroke="#000000" stroke-width="0.75" stroke-linecap="round" stroke-linejoin="round" stroke-miterlimit="10" d="  M19.515,14.104c0,0.361-0.292,0.656-0.657,0.656c-0.362,0-0.655-0.295-0.655-0.656c0-0.362,0.293-0.658,0.655-0.658  C19.223,13.445,19.515,13.741,19.515,14.104z"/><path fill="none" stroke="#000000" stroke-width="0.75" stroke-linecap="round" stroke-linejoin="round" stroke-miterlimit="10" d="  M21.483,14.104h6.563H21.483z"/><path fill="none" stroke="#000000" stroke-width="0.75" stroke-linecap="round" stroke-linejoin="round" stroke-miterlimit="10" d="  M17.999,51.252C17.999,45.038,23.037,40,29.248,40c0-5.425,3.208-10.089,7.82-12.233v-8.742c0-0.449-0.368-0.819-0.819-0.819H13.279  c-0.451,0-0.82,0.37-0.82,0.819v34.453c0,0.451,0.369,0.819,0.82,0.819h5.147C18.154,53.327,17.999,52.31,17.999,51.252z"/><path fill="none" stroke="#000000" stroke-width="1.25" stroke-linecap="round" stroke-linejoin="round" stroke-miterlimit="10" d="  M44.999,35.501c0-2.994,0.741-5.811,2.033-8.293C45.74,29.69,44.999,32.507,44.999,35.501z"/><rect x="61.249" y="52.502" fill="none" stroke="#000000" stroke-width="0.75" stroke-linecap="round" stroke-linejoin="round" stroke-miterlimit="10" width="17.499" height="29.998"/><rect x="31.246" y="72.501" fill="none" stroke="#000000" stroke-width="0.75" stroke-linecap="round" stroke-linejoin="round" stroke-miterlimit="10" width="30" height="9.999"/><rect x="31.246" y="52.502" fill="none" stroke="#000000" stroke-width="0.75" stroke-linecap="round" stroke-linejoin="round" stroke-miterlimit="10" width="30" height="19.999"/><path fill="none" stroke="#000000" stroke-width="0.75" stroke-linecap="round" stroke-linejoin="round" stroke-miterlimit="10" d="  M76.25,50.001h1.247c0.692,0,1.251,0.559,1.251,1.251V52.5H76.25V50.001z"/><path fill="none" stroke="#000000" stroke-width="0.75" stroke-linecap="round" stroke-linejoin="round" stroke-miterlimit="10" d="  M31.25,52.5v-1.25c0-0.69,0.558-1.249,1.247-1.249h38.755V52.5H31.25z"/><path fill="none" stroke="#000000" stroke-width="0.75" stroke-linecap="round" stroke-linejoin="round" stroke-miterlimit="10" d="  M56.874,48.251c0.345,0,0.627-0.281,0.627-0.625c0-0.345-0.282-0.626-0.627-0.626h-3.748c-0.348,0-0.627,0.281-0.627,0.626  c0,0.344,0.279,0.625,0.627,0.625H56.874z"/><rect x="73.749" y="50.001" fill="none" stroke="#000000" stroke-width="0.75" stroke-linecap="round" stroke-linejoin="round" stroke-miterlimit="10" width="2.501" height="2.499"/><rect x="71.252" y="50.001" fill="none" stroke="#000000" stroke-width="0.75" stroke-linecap="round" stroke-linejoin="round" stroke-miterlimit="10" width="2.497" height="2.499"/><path fill="none" stroke="#000000" stroke-width="0.75" stroke-linecap="round" stroke-linejoin="round" stroke-miterlimit="10" d="  M75,55c0.686,0,1.25,0.563,1.25,1.25v8.751c0,0.688-0.564,1.25-1.25,1.25H64.998c-0.686,0-1.251-0.563-1.251-1.25V56.25  c0-0.687,0.565-1.25,1.251-1.25H75z"/><path fill="none" stroke="#000000" stroke-width="0.75" stroke-linecap="round" stroke-linejoin="round" stroke-miterlimit="10" d="  M44.999,82.5v-6.249c0-0.688-0.564-1.249-1.25-1.249L34.998,75c-0.688,0-1.251,0.563-1.251,1.249V82.5H44.999z"/><rect x="33.747" y="65.001" fill="none" stroke="#000000" stroke-width="0.75" stroke-linecap="round" stroke-linejoin="round" stroke-miterlimit="10" width="15" height="4.999"/><path fill="none" stroke="#000000" stroke-width="0.75" stroke-linecap="round" stroke-linejoin="round" stroke-miterlimit="10" d="  M57.498,55c0.686,0,1.25,0.563,1.25,1.25v4.999c0,0.689-0.564,1.251-1.25,1.251h-22.5c-0.688,0-1.251-0.562-1.251-1.251V56.25  c0-0.688,0.563-1.25,1.251-1.25H57.498z"/><rect x="63.747" y="68.749" fill="none" stroke="#000000" stroke-width="0.75" stroke-linecap="round" stroke-linejoin="round" stroke-miterlimit="10" width="12.503" height="2.501"/><rect x="63.747" y="73.75" fill="none" stroke="#000000" stroke-width="0.75" stroke-linecap="round" stroke-linejoin="round" stroke-miterlimit="10" width="7.501" height="2.499"/><path fill="none" stroke="#000000" stroke-width="1.25" stroke-linecap="round" stroke-linejoin="round" stroke-miterlimit="10" d="  M90,86.25v-1.249c0-1.381-1.12-2.501-2.502-2.501h-65c-1.381,0-2.501,1.12-2.501,2.499v1.251l5.265,2.632  C26.492,89.497,28.625,90,29.999,90h50.003c1.375,0,3.504-0.503,4.733-1.118L90,86.25z"/><path fill="none" stroke="#000000" stroke-width="0.75" stroke-linecap="round" stroke-linejoin="round" stroke-miterlimit="10" d="  M20.001,86.25H90H20.001z"/><path fill="none" stroke="#000000" stroke-width="0.75" stroke-linecap="round" stroke-linejoin="round" stroke-miterlimit="10" d="  M62.5,82.5l-0.813,1.139c-0.241,0.338-0.775,0.611-1.186,0.611H49.498c-0.409,0-0.943-0.273-1.185-0.611L47.5,82.5H62.5z"/><rect x="47.497" y="75" fill="none" stroke="#000000" stroke-width="0.75" stroke-linecap="round" stroke-linejoin="round" stroke-miterlimit="10" width="11.251" height="2.499"/><rect x="51.248" y="65.001" fill="none" stroke="#000000" stroke-width="0.75" stroke-linecap="round" stroke-linejoin="round" stroke-miterlimit="10" width="7.5" height="2.501"/><path fill="none" stroke="#000000" stroke-width="1.25" stroke-linecap="round" stroke-linejoin="round" stroke-miterlimit="10" d="  M80.367,40.127c0.396-1.478,0.631-3.021,0.631-4.626c0-9.942-8.059-18.001-18.002-18.001c-6.948,0-12.96,3.943-15.964,9.708  c-1.348-0.453-2.787-0.708-4.286-0.708c-7.456,0-13.499,6.045-13.499,13.5c-6.211,0-11.249,5.038-11.249,11.252  c0,5.615,4.118,10.256,9.499,11.1V50.001c0-2.763,2.239-5.001,4.999-5.001h45c2.764,0,5.003,2.238,5.003,5.001v11.844  c4.368-1.547,7.5-5.699,7.5-10.597C90,45.588,85.813,40.916,80.367,40.127z"/><rect x="16.211" y="21.953" fill="none" stroke="#000000" stroke-width="0.75" stroke-linecap="round" stroke-linejoin="round" stroke-miterlimit="10" width="17.109" height="5"/><path fill="none" stroke="#000000" stroke-width="0.75" stroke-linecap="round" stroke-linejoin="round" stroke-miterlimit="10" d="  M29.248,40c0-3.607,1.423-6.876,3.728-9.298H16.211v11.096h6.953C24.917,40.665,27.005,40,29.248,40z"/>
</svg>