<svg width='200' height='200' fill="#000000" xmlns="http://www.w3.org/2000/svg" xmlns:xlink="http://www.w3.org/1999/xlink" xml:space="preserve" version="1.1" style="shape-rendering:geometricPrecision;text-rendering:geometricPrecision;image-rendering:optimizeQuality;" viewBox="0 0 822 667" x="0px" y="0px" fill-rule="evenodd" clip-rule="evenodd"><defs><style type="text/css">
   
    .fil0 {fill:#000000}
   
  </style></defs><g><path class="fil0" d="M6 154c4,14 6,22 7,37 1,19 2,32 20,40 2,0 3,1 0,3 -13,7 4,47 19,52 -4,6 -11,27 0,52 8,20 13,38 28,54 2,1 23,14 22,13 1,3 1,5 1,7 -10,1 -20,0 -27,8 -19,22 -12,71 -41,89 -1,1 17,8 29,-8 14,-23 8,-27 11,-30 9,-9 9,-27 11,-27 10,2 23,2 27,1 2,0 1,2 0,2 -23,8 -26,12 -35,35 -8,20 -16,41 -24,62 -6,15 -13,34 -32,38 3,0 15,1 17,0 24,-11 37,-32 47,-57 2,-6 8,-40 13,-40 7,-1 40,-6 39,-5 -2,8 -2,7 -5,12 -8,14 -24,99 -31,102 -4,6 -23,13 -24,24 -1,6 33,-12 42,-23 17,-54 25,-53 28,-86 1,-5 41,-13 42,-10 2,9 -4,14 -7,22 -9,35 -13,58 -20,86 -2,6 -13,28 -16,34 -6,8 -22,16 -20,26 4,-1 21,-9 25,-13 13,-15 24,-25 31,-45 5,-16 17,-84 21,-83 5,2 19,-8 25,-8 23,-2 52,8 74,13 -22,25 -10,65 22,75 14,5 18,11 29,19 12,10 27,13 41,16 40,9 80,21 121,16 54,-2 75,-31 103,-46 -28,0 -57,15 -86,18 -5,0 -7,-3 -12,-3 -5,0 -13,3 -19,2 -3,0 -2,-5 -6,-5 -4,-1 -12,2 -16,1 -8,-3 -17,-7 -24,-12 0,0 11,-7 24,-13 1,0 15,3 16,3 4,-4 3,-10 4,-10 4,-2 19,6 24,5 2,-4 -1,-12 3,-13 5,-2 23,4 27,3 5,-1 -3,-9 2,-10 4,-1 13,3 18,2 7,-2 12,-9 20,-10 11,-2 21,-2 30,3 -7,-20 -51,-26 -68,-29 -29,-5 -111,-30 -132,-24 8,-9 18,-20 23,-30 2,-4 5,-4 9,-3 9,1 18,2 28,4 31,4 5,-18 18,-24 4,-1 8,2 11,5 10,8 13,-3 12,-11 0,-17 34,-29 47,-37 14,-8 22,-13 38,-13 19,0 36,-5 54,-8 4,-1 34,7 43,7 10,13 62,40 66,40 5,-1 -6,-10 -14,-21 -1,-1 0,-4 -2,-6 -1,-1 -1,-3 -2,-5 -1,0 -2,-1 -3,-2 -2,-2 -1,-3 -2,-5 -4,-5 -7,-9 -5,-10 4,0 8,2 13,3 2,1 4,-1 7,0 2,1 6,7 8,8 3,2 3,-2 5,0 4,2 7,7 11,10 3,2 6,-1 9,1 13,10 14,8 24,17 4,-11 -65,-138 -143,-92 -4,2 -22,23 -23,23 -20,-9 -69,-11 -81,9 -1,2 -14,-1 -16,-1 -2,-12 -7,-29 -9,-36 -7,-21 -28,-27 -39,-7 -8,13 -12,60 -15,77 -1,7 -6,9 -7,2 -1,-30 0,-50 -11,-78 -8,-19 -27,-16 -25,10 1,16 3,33 4,49 1,10 -6,10 -10,1 -10,-25 -20,-59 -50,-68 -33,-9 -21,37 -17,55 1,6 -3,9 -10,8 -5,-2 -7,-5 -10,-9 -18,-20 -38,-36 -65,-40 -17,-3 -58,0 -53,24 2,8 -9,6 -14,2 -12,-8 -25,-7 -36,-16 -14,-11 -27,-25 -40,-37 -15,-21 -36,-37 -60,-46 1,-19 -10,-38 -26,-48 2,-20 -3,-41 -15,-58 -7,-37 -8,-76 -3,-114 11,20 34,27 56,36 7,3 14,6 22,3 5,-3 3,-3 -1,-2 -15,3 -24,-11 -23,-24 1,-22 -4,-42 -22,-54 -18,-12 -47,-11 -61,7 -21,28 -23,108 -13,139zm59 -145c8,3 16,9 21,17 4,7 8,27 5,33 -1,0 -14,-39 -30,-27 -1,1 -2,3 -2,5 -16,-4 -22,-36 6,-28zm-43 24c-16,23 -21,86 -5,119 -1,-15 -16,-127 21,-118 0,-1 -11,-9 -16,-1zm52 202c1,-1 -1,-3 -4,-4 -5,-2 -12,-1 -16,2 -5,5 -7,9 -7,15 0,2 0,4 0,3 3,-2 2,-10 11,-14 4,-1 9,-2 13,-2 2,0 3,0 3,0zm40 63c1,-6 -35,-22 -44,13 -4,17 57,74 59,71 8,-11 -67,-82 -21,-84 3,0 5,1 6,0zm112 79c1,-8 -24,-11 -31,-10 -11,2 -17,9 -24,17 -6,8 -7,14 -8,24 0,4 0,8 2,7 1,-1 3,-7 5,-12 2,-5 5,-9 8,-13 6,-7 17,-9 26,-11 3,-1 22,-1 22,-2zm118 74c148,36 87,-15 17,-31 -28,-7 -81,1 -78,2 118,15 33,23 61,29zm75 -20c78,18 46,-8 10,-17 -15,-4 -54,-2 -52,-2 62,8 28,15 42,19zm63 16c0,-1 -3,-2 -5,-1 -23,5 -9,33 -8,30 0,-1 -1,-4 -1,-6 -1,-9 3,-16 11,-21 2,-1 4,-2 3,-2zm21 -15c0,0 -2,-1 -4,0 -8,2 -10,11 -6,18 0,1 1,2 1,1 1,-4 -5,-7 4,-15 1,-1 5,-4 5,-4zm-133 92c0,-2 -5,-5 -11,-7 -21,-5 -42,10 -46,31 -1,2 -1,25 1,22 1,-1 3,-7 4,-13 6,-20 23,-29 44,-32 4,0 8,0 8,-1zm51 15c44,-6 49,-5 75,5 12,3 35,13 36,14 1,2 -25,-4 -50,-3 -33,1 -56,28 -78,41 -7,4 -14,7 -21,7 -27,0 -7,-59 38,-64zm194 -162c0,-4 -11,-5 -14,-5 -17,3 -14,27 -13,26 3,-3 -3,-16 17,-21 2,0 10,0 10,0zm101 -26c23,5 25,7 37,16 5,4 16,13 16,14 0,1 -12,-7 -25,-11 -17,-5 -34,4 -47,7 -4,1 -8,2 -12,0 -14,-5 7,-31 31,-26zm-457 121c3,-20 -55,13 -67,43 13,-19 40,-33 56,-39 6,-3 8,7 11,-4zm-42 -6c9,-18 -56,-1 -75,25 17,-16 46,-22 63,-24 7,-1 6,9 12,-1zm-56 -13c9,-13 -43,-8 -62,9 15,-9 39,-10 53,-10 5,0 3,9 9,1zm-26 -24c12,-10 -33,-18 -53,-6 16,-6 35,-1 46,3 5,2 1,9 7,3zm394 -17c1,-7 6,-28 6,-36 0,-6 -1,-13 -1,-19 -1,-2 6,-6 8,2 1,3 1,6 4,8 3,2 7,16 5,19 -9,11 -13,16 -19,29 -1,1 -4,2 -3,-3zm-127 -59c9,-2 7,4 9,9 5,8 9,15 13,24 2,3 8,6 0,6 -7,0 -24,3 -24,-7 1,-5 0,-17 1,-20 0,-3 -2,-12 1,-12zm-131 12c4,2 9,3 14,2 2,-1 20,-5 21,-4 6,7 16,8 23,17 3,3 -11,-2 -11,-2 -7,-1 -14,-2 -21,-1 -10,2 -3,6 -14,1 -5,-2 -10,-4 -14,-6 -2,-1 0,-7 2,-7z"/></g></svg>