<svg width='200' height='200' fill="#000000" xmlns="http://www.w3.org/2000/svg" xmlns:xlink="http://www.w3.org/1999/xlink" version="1.1" x="0px" y="0px" viewBox="0 0 164 164" enable-background="new 0 0 164 164" xml:space="preserve"><path fill-rule="evenodd" clip-rule="evenodd" d="M38.067,115.996c-5.09,0.905-6.077,4.422-6.102,9.726  c-0.013,2.924-0.019,16.319-0.021,19.244h-6.643c0.003-2.933,0.009-16.338,0.023-19.27c0.04-8.655,3.314-14.928,11.794-16.312  C37.316,111.693,37.63,113.918,38.067,115.996L38.067,115.996z M151.369,56.731c0.045-7.831-0.562-17.763-1.184-24.338  c-1.192-12.596-15.72-2.631-23.155,1.625C133.9,39.955,143.65,49.125,151.369,56.731L151.369,56.731z M158.345,32.383  c1.155,11.562,1.874,21.726,2.031,33.519c2.079,2.234,3.32,3.734,3.304,4.084c-7.07,19.798-41.867,46.556-59.803,49.508  l-10.438-10.039l-33.64-0.946c-3.038,5.876-7.423,10.397-14.824,14.763c-5.585-11.425-4.269-35.058,1.431-46.29  c6.573,3.476,10.686,8.295,13.739,16.027l18.15-9.176l-6.831-14.477l47.33-41.503c0.519,0.07,1.722,0.857,3.412,2.169  C134.044,22.962,155.997,8.883,158.345,32.383L158.345,32.383z M36.865,103.902c-0.021-2.248,0.056-4.523,0.227-6.776  c-15.005,2.259-24.469,12.511-24.469,28.442v19.397h6.669v-19.397C19.292,113.451,25.754,105.969,36.865,103.902L36.865,103.902z   M37.698,91.626c0.344-2.353,0.791-4.623,1.333-6.746C19.678,85.371,0,99.302,0,126.065v18.9h6.669v-18.9  C6.669,104.594,22.618,92.765,37.698,91.626z"/></svg>
