<?xml version="1.0" standalone="no"?>
<!DOCTYPE svg PUBLIC "-//W3C//DTD SVG 20010904//EN"
 "http://www.w3.org/TR/2001/REC-SVG-20010904/DTD/svg10.dtd">
<svg version="1.0" xmlns="http://www.w3.org/2000/svg"
 width="700.000000pt" height="700.000000pt" viewBox="0 0 700.000000 700.000000"
 preserveAspectRatio="xMidYMid meet">
<metadata>
Created by potrace 1.11, written by Peter Selinger 2001-2013
</metadata>
<g transform="translate(0.000000,700.000000) scale(0.100000,-0.100000)"
fill="#000000" stroke="none">
<path d="M3469 6639 c-96 -15 -161 -72 -189 -166 l-13 -43 -253 0 c-227 0
-252 -2 -258 -17 -4 -9 -7 -214 -7 -454 l0 -438 -225 2 -225 2 -18 53 c-55
161 -254 206 -376 86 -118 -117 -81 -306 74 -376 36 -17 57 -19 109 -15 84 8
146 51 182 125 l25 52 227 0 227 0 -2 -412 -2 -411 -65 -35 c-113 -61 -182
-113 -280 -211 -148 -150 -264 -341 -336 -556 -35 -104 -72 -265 -80 -340 -5
-52 -5 -369 0 -415 2 -19 7 -66 10 -105 5 -59 34 -239 50 -311 39 -177 116
-400 200 -579 l52 -110 -194 0 c-135 0 -199 -3 -211 -11 -14 -11 -16 -45 -17
-276 -1 -144 -2 -266 -3 -270 0 -5 -9 -8 -19 -8 -10 0 -39 -13 -65 -30 -154
-97 -138 -328 28 -401 106 -47 231 -10 290 85 26 43 30 59 30 120 0 53 -5 81
-21 111 -23 44 -91 101 -132 112 -15 3 -29 9 -32 14 -4 6 -5 417 -1 469 1 13
30 15 196 15 l194 1 25 -47 c76 -138 264 -379 406 -518 103 -101 146 -131 228
-161 89 -32 216 -25 299 16 68 35 139 97 173 153 14 22 28 41 31 41 3 0 10
-10 16 -22 18 -39 101 -125 149 -153 24 -14 67 -33 94 -41 49 -14 170 -21 188
-10 5 3 21 7 37 10 121 22 357 251 557 541 223 321 396 756 444 1112 3 26 8
51 10 55 2 3 7 44 10 90 3 45 7 89 10 97 5 17 5 369 -1 429 -21 221 -143 542
-280 736 -227 321 -573 500 -981 507 -106 1 -156 -15 -211 -69 l-45 -44 -29
35 c-15 19 -52 44 -81 57 -49 21 -63 22 -183 17 -150 -7 -181 -12 -362 -63
l-23 -6 0 216 0 216 434 0 434 0 11 -32 c46 -130 192 -197 310 -142 61 28 105
73 127 130 l17 45 94 -3 95 -3 12 -36 c20 -57 50 -93 105 -123 124 -67 277
-11 327 122 l17 42 283 0 282 0 17 -44 c33 -86 112 -143 206 -150 97 -6 195
63 230 162 l11 33 95 -3 95 -3 12 -37 c43 -123 198 -188 312 -130 95 48 141
129 131 232 -6 75 -44 133 -111 175 -122 75 -294 11 -335 -124 l-11 -38 -94
-1 -94 0 -17 44 c-38 100 -122 155 -227 149 -96 -5 -172 -61 -203 -151 l-13
-39 -289 0 c-207 0 -287 3 -286 11 5 28 -64 119 -111 149 -122 75 -294 11
-335 -125 l-11 -39 -94 1 -94 0 -17 44 c-35 92 -108 145 -205 150 -96 5 -176
-45 -219 -136 l-27 -57 -432 0 -432 0 0 283 0 284 229 0 229 0 7 -32 c11 -47
90 -121 148 -137 142 -40 281 53 294 197 25 279 -367 353 -447 85 l-13 -42
-223 -1 -224 0 0 140 c-1 77 -1 178 -1 225 0 47 0 110 1 140 l0 55 229 0 229
0 6 -30 c8 -42 93 -126 142 -139 92 -26 170 -6 236 60 50 50 68 94 68 167 0
133 -128 241 -261 221z m111 -91 c57 -39 75 -72 75 -138 0 -63 -16 -95 -69
-134 -39 -29 -133 -29 -172 0 -53 39 -69 71 -69 134 0 44 5 66 21 87 35 48 82
73 134 73 32 0 57 -7 80 -22z m1 -630 c75 -42 102 -159 52 -226 -38 -51 -70
-67 -133 -67 -92 0 -150 54 -158 147 -3 44 0 59 20 88 54 79 141 102 219 58z
m-1447 -272 c18 -8 45 -29 59 -48 98 -128 -38 -306 -187 -244 -64 27 -97 79
-98 153 0 111 119 184 226 139z m1843 -371 c49 -21 71 -42 89 -84 28 -67 16
-127 -37 -179 -58 -57 -154 -60 -212 -6 -43 40 -60 81 -55 134 6 60 39 107 92
131 50 23 76 24 123 4z m657 -4 c76 -33 112 -116 86 -195 -58 -177 -325 -120
-308 66 6 57 30 95 81 123 48 27 89 29 141 6z m1036 -3 c57 -30 82 -65 88
-127 14 -145 -162 -231 -266 -130 -82 81 -61 213 42 260 54 24 83 24 136 -3z
m644 3 c88 -39 121 -141 73 -224 -86 -146 -311 -74 -295 94 6 58 30 96 81 124
48 27 89 29 141 6z m-2489 -615 c33 -3 69 -5 79 -6 16 0 14 -5 -14 -33 -30
-31 -37 -33 -80 -29 -122 11 -219 -77 -220 -201 0 -48 24 -112 39 -103 16 11
78 -15 105 -43 22 -22 30 -42 33 -78 6 -68 -5 -80 -54 -60 -35 13 -96 16 -158
5 -19 -3 -20 2 -19 207 1 236 7 263 67 309 33 25 110 46 147 39 8 -1 42 -4 75
-7z m-469 -6 c34 -13 81 -61 96 -98 6 -16 11 -111 12 -240 l1 -213 -25 7 c-48
13 -115 12 -153 -4 -49 -19 -60 -7 -54 61 6 70 71 130 130 121 13 -2 23 8 33
31 35 83 3 185 -75 240 -37 26 -52 30 -111 31 -61 1 -72 4 -100 30 l-30 29 32
6 c56 11 215 10 244 -1z m-326 -60 c32 -14 70 -69 70 -101 0 -29 17 -49 41
-49 23 0 32 16 31 51 -1 26 3 29 29 29 77 0 139 -59 139 -132 0 -33 -3 -37
-32 -44 -18 -3 -43 -13 -56 -22 -21 -14 -26 -13 -62 7 -42 23 -115 33 -143 19
-17 -9 -18 -6 -14 29 11 102 -76 230 -112 166 -7 -13 -3 -29 16 -61 52 -88 16
-182 -79 -205 -18 -5 -41 1 -77 20 -59 30 -119 32 -178 8 -44 -18 -53 -10 -53
50 0 51 28 97 73 118 48 23 74 21 126 -8 23 -14 49 -25 57 -25 15 0 29 26 38
71 16 74 110 115 186 79z m1067 -3 c29 -15 52 -53 70 -112 11 -37 34 -43 71
-17 92 66 212 7 212 -103 0 -60 -9 -69 -54 -50 -59 25 -118 21 -180 -10 -38
-19 -60 -25 -77 -20 -94 30 -127 121 -75 209 22 37 23 46 12 62 -35 47 -108
-51 -108 -145 l1 -48 -58 0 c-42 0 -69 -6 -98 -22 l-40 -23 -39 21 c-21 12
-47 21 -56 21 -26 0 -24 63 3 107 25 40 66 63 114 63 33 0 35 -2 35 -35 0 -64
60 -59 71 6 15 94 110 140 196 96z m-1317 -37 c0 -5 -7 -10 -16 -10 -8 0 -12
5 -9 10 3 6 10 10 16 10 5 0 9 -4 9 -10z m1465 0 c3 -5 -1 -10 -9 -10 -9 0
-16 5 -16 10 0 6 4 10 9 10 6 0 13 -4 16 -10z m-1768 -202 c-2 -7 5 -37 15
-66 19 -50 19 -55 4 -93 -28 -70 -15 -146 34 -199 25 -26 32 -29 50 -20 26 14
25 31 -4 75 -19 28 -24 46 -21 80 4 56 19 81 58 105 42 26 72 25 130 -4 37
-19 61 -24 100 -22 l52 3 -3 -42 c-3 -28 3 -59 16 -89 19 -42 20 -48 5 -77
-21 -42 -21 -126 1 -167 11 -22 15 -43 10 -67 -8 -45 -16 -49 -55 -30 -31 17
-88 16 -181 0 -57 -11 -61 -23 -29 -84 35 -66 29 -117 -17 -164 -40 -40 -116
-49 -159 -20 -46 32 -61 34 -77 11 -14 -19 -13 -24 3 -47 66 -93 24 -206 -82
-218 -57 -7 -107 17 -107 51 0 73 -65 163 -134 186 -37 12 -37 12 -15 130 10
53 18 71 46 98 29 27 42 32 82 32 26 0 55 -6 64 -12 16 -12 16 -16 -7 -48 -34
-50 -45 -99 -35 -151 4 -24 8 -47 9 -51 1 -19 62 -76 76 -71 31 12 34 39 8 74
-22 29 -25 42 -21 87 3 43 10 59 34 84 49 48 125 50 190 2 20 -14 23 -14 42 5
l21 21 -25 38 c-38 56 -35 121 8 168 46 51 107 58 172 19 37 -21 49 -24 61
-15 17 15 18 42 2 58 -9 9 -9 18 0 37 31 67 2 185 -54 222 -19 12 -24 12 -37
-2 -17 -17 -13 -39 11 -67 18 -22 27 -100 14 -124 -8 -14 -20 -17 -60 -15
-114 6 -214 -84 -216 -195 0 -41 -1 -42 -38 -42 -21 -1 -47 -4 -58 -7 -11 -4
-20 -3 -20 2 0 14 -61 46 -103 53 -21 4 -55 4 -75 -1 -20 -4 -38 -7 -39 -5 -2
1 4 21 13 43 l16 41 44 -20 c135 -59 294 62 277 212 -5 45 -53 124 -78 129
-10 2 -24 -5 -31 -14 -11 -15 -9 -25 12 -61 54 -92 16 -187 -82 -208 -27 -6
-114 17 -114 30 0 13 89 178 123 228 45 67 63 89 126 158 45 49 56 57 48 36z
m2204 -171 c28 -40 71 -112 96 -160 42 -84 43 -90 26 -103 -32 -24 -110 -23
-148 2 -57 37 -73 125 -32 185 26 40 28 58 6 72 -25 16 -45 3 -74 -47 -57 -97
-19 -227 82 -283 44 -25 117 -27 166 -5 l46 20 9 -26 c6 -15 13 -35 17 -46 7
-16 5 -17 -25 -11 -18 4 -40 8 -49 10 -26 4 -98 -21 -127 -44 -14 -11 -30 -19
-34 -16 -4 3 -28 6 -52 6 l-44 2 -2 44 c-5 112 -97 197 -209 192 -61 -3 -73 6
-73 58 0 31 8 56 35 102 16 28 11 47 -15 54 -57 15 -117 -154 -79 -225 8 -15
8 -26 -1 -44 -14 -25 -8 -52 13 -60 8 -3 32 7 53 21 77 53 184 13 201 -74 9
-48 5 -68 -23 -117 l-24 -41 20 -18 c20 -18 21 -18 53 6 25 19 44 24 90 24 55
0 61 -2 93 -37 49 -54 49 -100 -1 -188 -12 -21 -12 -27 1 -41 23 -26 49 -12
78 42 43 78 38 147 -18 231 -17 26 -17 27 3 37 11 6 40 11 65 11 37 0 51 -6
79 -32 28 -27 36 -45 46 -98 22 -118 22 -118 -16 -131 -67 -22 -133 -112 -133
-180 0 -35 -40 -59 -101 -59 -35 0 -48 6 -80 39 -51 51 -56 108 -14 173 23 35
24 38 7 57 -15 19 -19 20 -42 6 -78 -45 -133 -48 -179 -9 -61 51 -69 106 -27
179 38 64 18 79 -125 92 -40 3 -66 0 -87 -11 -41 -21 -40 -22 -52 22 -10 31
-8 44 8 80 22 49 21 116 -3 162 -13 25 -13 32 3 61 10 21 17 57 17 92 l0 58
38 -7 c43 -7 120 11 138 32 16 20 69 17 105 -5 64 -39 80 -131 34 -194 -26
-35 -19 -67 16 -67 58 0 100 139 67 222 -13 33 -13 42 1 80 10 24 18 54 19 67
1 21 7 18 54 -34 30 -31 76 -89 104 -128z m-1528 91 c23 -9 27 -15 21 -32 -3
-12 -9 -44 -11 -71 l-5 -50 -49 1 c-28 1 -68 -5 -90 -14 -21 -8 -41 -13 -44
-11 -2 3 -7 20 -10 38 -11 65 29 132 91 151 30 8 50 6 97 -12z m843 -19 c31
-29 48 -82 40 -125 -7 -37 -18 -41 -56 -21 -14 7 -51 13 -82 13 l-58 -1 0 36
c0 20 -5 50 -11 68 -13 37 -12 39 37 56 45 15 97 5 130 -26z m-841 -215 l34
-16 -15 -41 c-8 -23 -13 -50 -12 -61 3 -19 -3 -21 -54 -22 -37 -1 -68 -8 -92
-22 l-35 -21 -7 22 c-20 63 3 123 59 157 39 24 78 25 122 4z m288 -10 c14 -11
31 -29 38 -42 l13 -23 33 36 c51 56 106 69 167 40 70 -34 93 -133 46 -198 -24
-32 -23 -55 2 -71 14 -8 23 -5 46 17 38 37 93 52 136 37 71 -23 113 -106 87
-172 l-10 -27 -45 20 c-57 25 -110 27 -134 6 -49 -45 -130 -54 -192 -22 -63
33 -92 135 -57 200 43 79 42 75 24 92 -15 15 -18 15 -42 -1 -14 -9 -31 -28
-37 -42 l-12 -25 -36 42 c-26 30 -41 41 -53 36 -30 -11 -30 -36 -2 -79 50 -76
31 -174 -43 -220 -62 -38 -119 -34 -192 17 -31 21 -40 23 -79 14 -24 -5 -56
-16 -71 -24 -34 -17 -41 -11 -47 45 -8 66 32 123 98 140 50 14 91 2 132 -37
22 -22 31 -25 45 -17 25 16 26 40 2 72 -45 61 -23 163 43 196 40 21 105 16
140 -10z m524 6 c57 -35 80 -92 60 -153 l-9 -27 -35 21 c-24 15 -52 22 -89 23
-52 0 -60 6 -55 38 0 4 -6 25 -13 46 l-14 40 31 16 c43 21 86 20 124 -4z
m-1085 -387 c44 -45 49 -107 14 -167 -15 -26 -31 -46 -36 -46 -16 0 -50 -67
-50 -98 0 -55 52 -53 70 4 8 22 20 36 35 40 35 9 47 2 70 -41 22 -42 50 -53
65 -25 15 28 -6 82 -46 116 l-37 32 25 43 c15 26 43 54 66 67 39 22 92 30 92
14 0 -20 86 -47 145 -46 66 0 99 14 164 69 l43 35 39 -34 c60 -55 96 -70 169
-71 53 0 73 5 112 28 26 15 54 27 63 27 35 0 97 -45 123 -89 l25 -43 -36 -32
c-55 -47 -70 -115 -30 -130 21 -8 33 1 49 41 16 38 33 48 68 39 16 -4 28 -17
36 -40 14 -44 39 -54 62 -26 22 27 9 65 -38 115 -48 51 -65 89 -62 136 4 78
84 135 163 115 22 -6 24 -9 15 -26 -15 -27 -15 -100 -1 -143 7 -20 30 -51 51
-71 l39 -35 -29 -6 c-38 -8 -104 -66 -124 -109 -9 -20 -18 -56 -21 -80 -7 -84
-57 -136 -132 -136 -77 0 -128 54 -136 146 -17 198 -248 283 -380 140 l-29
-30 -27 31 c-123 145 -360 56 -378 -142 -3 -27 -12 -63 -20 -78 -31 -60 -123
-86 -183 -51 -36 22 -59 62 -65 115 -3 24 -17 67 -31 96 -21 44 -33 56 -82 80
l-57 29 34 29 c56 49 79 139 52 207 -13 33 -3 39 62 34 38 -3 55 -10 79 -33z
m-757 -307 c40 -61 23 -149 -37 -186 l-33 -20 -5 58 c-3 31 -4 90 -2 129 l4
73 29 -15 c16 -9 36 -26 44 -39z m2827 -143 l-4 -63 -29 15 c-85 44 -89 175
-7 225 l33 20 5 -68 c3 -37 3 -95 2 -129z m-1558 142 c49 -33 68 -78 70 -171
l2 -84 -30 36 c-53 65 -167 98 -181 54 -8 -26 11 -50 39 -50 34 0 85 -37 102
-74 34 -70 -16 -159 -96 -172 -43 -7 -61 -34 -39 -60 25 -31 122 4 174 62 l30
33 -1 -177 c-2 -221 0 -207 -20 -188 -23 23 -46 34 -95 45 -49 11 -79 0 -79
-29 0 -23 7 -27 51 -35 117 -21 173 -150 104 -241 -29 -37 -49 -51 -89 -58
-50 -9 -66 -17 -66 -35 0 -24 17 -37 60 -45 50 -9 97 -45 117 -90 15 -35 17
-71 17 -300 -1 -247 -2 -264 -24 -320 -55 -144 -229 -248 -317 -191 -63 41
-80 125 -39 186 23 34 40 44 111 65 19 6 31 17 33 31 3 18 -5 24 -52 37 -57
17 -101 56 -112 102 -18 69 35 149 107 160 49 8 64 25 49 53 -14 26 -61 28
-110 3 l-35 -17 -27 42 c-27 43 -53 50 -72 21 -6 -11 -3 -29 13 -61 20 -42 21
-48 7 -80 -26 -63 -87 -78 -154 -36 -25 16 -54 4 -58 -24 -3 -23 62 -66 112
-74 21 -3 53 -16 71 -29 88 -66 50 -200 -64 -220 -15 -3 -30 -7 -35 -10 -12
-8 -10 -40 5 -52 14 -12 71 -6 100 9 14 8 17 5 17 -14 0 -12 9 -40 20 -62 23
-46 24 -49 8 -38 -7 4 -19 8 -26 9 -34 6 -150 106 -261 225 l-52 57 38 -14
c62 -22 92 -18 99 12 7 29 -7 44 -41 44 -28 0 -81 34 -101 65 -23 36 -21 107
4 143 23 31 50 47 102 60 28 6 36 14 38 35 2 15 0 28 -5 28 -60 10 -113 -7
-177 -56 -50 -38 -104 -43 -154 -15 -69 39 -89 128 -43 191 25 34 26 52 5 70
-20 16 -41 4 -71 -40 l-22 -33 -43 89 c-45 95 -118 276 -113 281 2 2 9 5 17 6
42 9 78 22 121 44 54 28 100 25 146 -9 48 -35 90 10 47 50 -25 24 -87 51 -116
51 -15 0 -20 6 -20 28 0 41 11 49 60 47 77 -4 145 38 180 109 20 41 23 44 46
36 40 -16 107 -12 147 9 l36 19 17 -26 c12 -18 15 -39 12 -74 -10 -102 -104
-146 -200 -94 -27 14 -54 23 -62 20 -23 -9 -24 -36 -3 -65 44 -61 38 -140 -14
-183 -59 -50 -123 -46 -190 10 -44 36 -56 38 -73 11 -8 -12 -5 -26 12 -55 27
-50 28 -74 1 -128 -41 -80 -1 -99 67 -33 36 35 51 43 92 47 125 12 201 -117
129 -223 -20 -29 -24 -42 -16 -57 19 -36 55 -18 94 47 9 15 12 15 40 1 75 -39
168 -27 229 30 20 19 36 38 36 44 0 17 20 11 53 -14 20 -16 56 -29 96 -35 100
-16 141 -54 144 -133 2 -68 -44 -123 -111 -134 -44 -7 -52 -12 -52 -32 0 -23
19 -42 43 -42 40 0 86 -32 106 -74 40 -82 -9 -176 -101 -191 -74 -13 -65 -78
10 -68 126 16 206 147 164 271 -8 23 -26 54 -42 68 l-28 27 34 44 c33 43 39
57 48 117 7 38 -20 115 -52 149 -37 39 -67 53 -141 67 -77 14 -104 30 -125 75
-33 69 -10 138 57 175 23 13 43 23 45 22 10 -8 33 2 42 19 15 26 -3 49 -38 49
-37 0 -88 36 -107 77 -39 81 9 171 100 187 62 11 69 60 12 71 -83 16 -118 49
-120 111 -1 48 30 86 86 103 54 17 64 34 37 61 -18 18 -23 18 -66 5 -110 -33
-159 -144 -109 -248 10 -21 27 -44 38 -52 l21 -15 -26 -27 c-23 -25 -59 -85
-58 -98 1 -36 -2 -39 -15 -15 -9 16 -14 52 -14 95 1 70 -23 155 -43 155 -6 0
-7 8 -3 18 20 44 32 109 25 133 -7 24 -5 26 26 27 107 4 184 85 197 207 8 74
41 122 97 143 35 14 103 7 134 -13z m374 -2 c43 -32 62 -66 68 -118 8 -71 22
-111 52 -147 31 -36 94 -67 139 -68 31 0 32 -1 31 -48 0 -26 7 -63 15 -82 13
-33 13 -38 -10 -77 -20 -34 -24 -56 -25 -125 0 -54 -6 -91 -14 -103 -14 -19
-15 -17 -14 20 1 13 -34 72 -56 95 l-24 26 24 25 c34 37 46 64 50 113 9 101
-78 195 -170 184 -23 -2 -29 -8 -29 -27 0 -25 10 -33 59 -47 85 -26 91 -160 8
-192 -15 -6 -41 -14 -59 -17 -17 -3 -34 -13 -37 -21 -7 -19 3 -44 20 -45 80
-7 132 -52 141 -119 10 -73 -52 -150 -120 -150 -14 0 -29 -6 -34 -12 -20 -33
-7 -53 41 -62 61 -11 116 -73 116 -131 0 -66 -66 -135 -130 -135 -118 0 -213
-103 -203 -220 4 -44 38 -115 67 -139 14 -12 11 -18 -19 -54 -42 -48 -54 -85
-48 -146 5 -64 40 -120 93 -152 49 -30 112 -43 129 -26 15 15 14 47 -1 51
-102 29 -145 66 -152 128 -7 62 40 132 98 143 63 13 67 16 64 42 -2 22 -11 28
-51 38 -77 20 -117 70 -111 143 5 66 67 122 135 122 22 0 61 13 94 30 54 29
58 29 71 13 7 -10 14 -21 14 -24 0 -4 19 -19 43 -35 35 -24 52 -29 107 -29 48
0 74 5 95 19 28 18 30 18 40 1 39 -65 75 -83 94 -47 8 14 4 27 -16 55 -20 28
-26 49 -26 86 -1 142 174 191 266 75 21 -27 55 -32 64 -8 3 8 -4 35 -16 58
-26 53 -26 71 -1 121 25 49 25 62 -1 75 -17 10 -26 6 -58 -23 -68 -61 -147
-62 -200 -1 -43 49 -45 103 -5 171 22 38 23 43 8 57 -20 21 -23 21 -68 -10
-53 -36 -124 -31 -168 14 -38 38 -50 117 -25 156 l16 24 38 -19 c40 -20 106
-25 146 -10 23 9 27 6 49 -37 35 -67 95 -105 167 -106 61 -1 71 -7 71 -48 0
-23 -5 -28 -23 -28 -34 0 -124 -48 -130 -69 -2 -10 2 -26 9 -36 12 -17 15 -16
61 8 57 29 111 29 151 0 15 -11 38 -22 52 -26 62 -14 73 -17 75 -19 5 -6 -66
-184 -111 -277 l-44 -94 -23 33 c-30 45 -51 57 -71 41 -20 -17 -21 -45 -2 -61
47 -38 39 -134 -14 -185 -43 -41 -118 -43 -170 -4 -100 75 -190 89 -190 28 0
-22 7 -26 51 -34 96 -16 144 -121 92 -203 -17 -28 -71 -62 -98 -62 -35 0 -48
-15 -41 -45 6 -25 10 -27 51 -22 24 3 54 11 67 18 40 21 -149 -175 -227 -236
-16 -13 -46 -30 -67 -38 l-36 -15 19 41 c10 23 19 52 19 65 0 19 3 21 19 13
55 -30 111 -20 111 20 0 21 -7 26 -41 32 -50 10 -79 31 -99 73 -41 83 8 161
111 179 46 8 111 52 107 72 -6 33 -33 37 -81 14 -42 -21 -48 -21 -82 -7 -25
11 -40 26 -51 51 -14 34 -14 40 6 79 24 50 25 60 6 75 -21 18 -55 -3 -72 -45
-14 -32 -16 -33 -37 -20 -32 21 -104 31 -121 17 -27 -23 -7 -61 32 -61 69 0
129 -78 119 -154 -7 -53 -59 -103 -116 -112 -29 -5 -41 -12 -45 -28 -6 -23 16
-46 46 -46 56 0 118 -69 118 -132 0 -67 -66 -132 -133 -130 -86 2 -208 106
-248 210 -19 53 -21 76 -22 307 0 138 2 266 6 286 9 47 59 96 111 110 58 15
71 23 74 47 3 17 -4 23 -40 32 -68 17 -84 26 -114 65 -34 45 -38 115 -8 166
19 33 90 82 105 73 16 -10 59 16 59 36 0 20 -12 29 -47 34 -25 4 -99 -22 -114
-40 -30 -36 -34 -15 -34 171 l0 184 30 -32 c41 -44 73 -63 121 -71 30 -5 44
-3 53 8 17 21 4 56 -21 56 -58 0 -117 54 -125 116 -8 60 54 134 113 134 28 0
47 24 39 50 -14 44 -128 11 -181 -54 l-30 -36 2 85 c1 74 5 91 28 125 14 22
41 46 59 54 43 18 113 13 145 -11z m-1050 -48 c19 -20 32 -45 32 -60 0 -54 23
-114 62 -161 53 -64 60 -80 60 -126 -1 -45 -31 -92 -72 -113 -61 -32 -140 -9
-159 45 -18 53 -51 91 -75 88 -29 -4 -32 -41 -6 -83 68 -109 -38 -239 -155
-191 -20 9 -46 27 -57 41 -44 56 -90 5 -49 -54 28 -39 28 -113 1 -151 -22 -31
-93 -64 -120 -55 -15 5 -27 39 -55 157 -20 83 -34 152 -31 155 2 3 14 -1 26
-7 31 -17 108 -16 150 2 51 22 98 76 115 129 18 63 11 89 -26 89 -25 0 -29 -5
-35 -37 -13 -76 -60 -122 -126 -125 -79 -3 -125 46 -133 142 -4 36 -8 70 -10
77 -2 6 12 17 32 24 20 6 55 31 77 54 l41 42 36 -17 c36 -15 37 -16 22 -43 -8
-16 -13 -45 -11 -65 3 -32 7 -37 31 -40 15 -2 27 0 28 5 10 96 60 154 136 155
68 1 133 -54 133 -111 0 -12 10 -31 22 -43 l21 -21 18 21 c42 52 -30 184 -116
212 -25 8 -32 15 -28 29 7 29 54 68 93 79 48 12 89 -1 128 -43z m1753 9 c42
-40 43 -61 4 -74 -66 -22 -124 -102 -127 -176 -1 -40 16 -58 43 -43 17 9 21
17 33 70 8 35 51 77 92 88 73 20 145 -28 164 -111 11 -45 15 -49 39 -46 24 3
26 7 25 48 -1 25 -4 55 -9 67 -6 19 -2 24 26 36 34 13 35 13 75 -28 22 -23 56
-48 76 -54 l35 -11 -12 -87 c-10 -77 -15 -89 -43 -115 -26 -22 -42 -28 -78
-28 -77 0 -124 41 -139 122 -8 43 -24 52 -54 32 -22 -16 -22 -27 0 -100 12
-39 64 -93 109 -112 42 -18 119 -19 150 -2 29 15 31 12 20 -35 -5 -22 -12 -56
-15 -75 -11 -62 -49 -185 -59 -192 -14 -9 -66 2 -94 20 -53 34 -70 127 -34
180 27 39 32 58 19 71 -18 18 -44 13 -64 -12 -55 -70 -156 -71 -208 -3 -35 45
-35 98 -1 161 24 46 25 51 9 63 -9 6 -22 12 -29 12 -16 0 -51 -49 -65 -90 -29
-82 -173 -76 -216 10 -30 59 -14 117 49 185 35 37 55 95 57 163 1 12 16 38 34
58 54 59 131 62 188 8z m-1525 -809 c29 -43 38 -65 38 -98 0 -107 -119 -165
-210 -103 -28 19 -42 23 -56 15 -23 -12 -23 -41 0 -62 51 -46 149 -61 215 -33
35 14 38 14 47 -4 27 -50 -4 -131 -61 -162 -44 -23 -73 -23 -125 3 -40 19 -44
25 -56 77 -10 45 -21 66 -55 99 -23 24 -50 43 -60 43 -12 0 -7 9 20 31 48 39
80 102 80 155 l0 42 39 0 c22 1 61 12 86 25 26 13 50 25 53 26 4 0 24 -24 45
-54z m1198 30 c29 -15 66 -25 91 -25 l41 0 0 -43 c1 -52 33 -116 76 -152 30
-26 31 -28 12 -38 -47 -25 -92 -86 -105 -141 -11 -51 -16 -57 -54 -76 -51 -25
-81 -25 -124 -2 -59 32 -90 122 -58 166 13 17 15 17 46 1 18 -9 52 -17 75 -17
99 1 197 78 139 111 -13 7 -29 3 -61 -16 -101 -59 -207 -2 -205 109 1 39 8 57
39 98 21 27 38 50 39 50 0 0 22 -11 49 -25z m-1064 -139 c0 -3 -4 -8 -10 -11
-5 -3 -10 -1 -10 4 0 6 5 11 10 11 6 0 10 -2 10 -4z m865 -6 c3 -5 1 -10 -4
-10 -6 0 -11 5 -11 10 0 6 2 10 4 10 3 0 8 -4 11 -10z m-406 -151 l34 -31 -36
-33 -36 -33 -36 31 -36 30 33 34 c17 18 34 33 37 33 4 0 21 -14 40 -31z m-952
-519 c1 -27 0 -50 -1 -50 -1 0 -17 20 -34 44 l-32 45 32 4 c18 2 33 5 33 5 0
1 1 -20 2 -48z m1866 1 c-15 -20 -30 -39 -33 -43 -3 -5 -6 13 -6 40 l0 48 33
-4 32 -4 -26 -37z m-2473 -383 c57 -30 82 -65 88 -127 4 -41 0 -58 -21 -94
-87 -148 -311 -75 -295 95 6 60 31 95 88 125 54 29 84 29 140 1z"/>
</g>
</svg>
